<?xml version="1.0" standalone="no"?>
<!DOCTYPE svg PUBLIC "-//W3C//DTD SVG 20010904//EN"
 "http://www.w3.org/TR/2001/REC-SVG-20010904/DTD/svg10.dtd">
<svg version="1.0" xmlns="http://www.w3.org/2000/svg"
 width="200.000000pt" height="200.000000pt" viewBox="0 0 200.000000 200.000000"
 preserveAspectRatio="xMidYMid meet">
<metadata>
Created by potrace 1.11, written by Peter Selinger 2001-2013
</metadata>
<g transform="translate(0.000000,200.000000) scale(0.100000,-0.100000)"
fill="#000000" stroke="none">
<path d="M1267 1994 c-1 -1 -45 -5 -97 -8 -118 -9 -171 -14 -235 -26 -27 -5
-61 -11 -75 -14 -48 -8 -155 -37 -195 -52 -223 -88 -381 -203 -484 -354 -128
-188 -178 -342 -180 -558 -2 -178 22 -289 98 -441 65 -132 139 -222 277 -340
81 -68 284 -161 385 -176 24 -4 47 -8 50 -11 20 -12 179 -15 256 -4 88 12 222
44 252 61 9 5 32 15 51 23 147 63 301 193 396 336 86 129 166 343 180 480 2
25 7 53 10 62 18 60 28 262 38 821 l4 208 -364 -2 c-200 -1 -365 -4 -367 -5z
m-217 -904 c87 -62 74 -201 -23 -249 -126 -63 -254 74 -189 203 35 70 145 94
212 46z"/>
</g>
</svg>
